<?xml version="1.0" standalone="no"?> <!DOCTYPE svg PUBLIC "-//W3C//DTD SVG 1.0//EN" "http://www.w3.org/TR/2001/REC-SVG-20010904/DTD/svg10.dtd" > <svg xmlns="http://www.w3.org/2000/svg" width="100%" height="100%">
<defs >
<font id="plumbli" horiz-adv-x="896" ><font-face
    font-family="Plumb"
    units-per-em="2048"
    panose-1="2 0 3 3 0 0 0 0 0 0"
    ascent="1898"
    descent="-483"
    alphabetic="0" />
<missing-glyph horiz-adv-x="1000" />
<glyph unicode=" " glyph-name="space" horiz-adv-x="522" />
<glyph unicode="!" glyph-name="exclam" horiz-adv-x="622" d="M399 1458L387 393H297L285 1458H399ZM424 78Q424 43 400 19T342 -6T284 18T260 76T284 134T342 158T400 134T424 78Z" />
<glyph unicode="&quot;" glyph-name="quotedbl" horiz-adv-x="835" d="M641 1139H512V1458H641V1139ZM324 1139H195V1458H324V1139Z" />
<glyph unicode="#" glyph-name="numbersign" horiz-adv-x="1308" d="M1204 895H999L948 582H1145V492H934L856 0H752L831 492H471L395 0H291L369 492H172V582H383L434 895H231V987H446L520 1458H627L551 987H909L983 1458H1085L1012 987H1204V895ZM895 895H537L485
582H844L895 895Z" />
<glyph unicode="$" glyph-name="dollar" horiz-adv-x="1202" d="M635 780L694 770Q799 751 854 731T954 674Q1081 569 1081 389Q1081 233 983 129Q929 72 856 39Q811 17 767 8T635 -10V-233H543V-12Q456 -6 408 4T303 39Q246 64 207 92T104 180L182 258Q241 202
275 177T356 129Q399 110 436 102T543 88V692L510 696Q344 717 240 813T135 1071Q135 1233 233 1337Q293 1400 368 1429T543 1468V1651H635V1468Q754 1458 827 1427Q876 1408 911 1386T1008 1313L936 1241Q883 1285 855 1304T788 1339Q728 1364 635 1374V780ZM543
795V1374Q451 1364 399 1337Q244 1263 244 1075Q244 955 317 886T543 795ZM635 88Q724 97 786 118T899 193Q971 271 971 389Q971 521 891 592Q855 625 808 642T672 670Q663 671 653 673T635 676V88Z" />
<glyph unicode="%" glyph-name="percent" horiz-adv-x="1695" d="M1554 260Q1554 139 1480 63T1286 -14Q1166 -14 1091 62T1016 260V479Q1016 601 1091 677T1286 754Q1404 754 1479 678T1554 479V260ZM1235 1458L555 0H463L1143 1458H1235ZM680 979Q680 859 605
783T412 707Q292 707 217 783T141 979V1198Q141 1320 216 1396T412 1473Q530 1473 605 1396T680 1198V979ZM1106 264Q1106 63 1286 63Q1464 63 1464 264V475Q1464 676 1284 676Q1196 676 1151 625T1106 475V264ZM231 983Q231 784 412 784Q499 784 544 834T590 983V1194Q590
1395 410 1395Q322 1395 277 1344T231 1194V983Z" />
<glyph unicode="&amp;" glyph-name="ampersand" horiz-adv-x="1527" d="M1356 0H1214L1073 172Q1006 110 946 74Q801 -12 625 -12Q423 -12 298 103T172 403Q172 545 252 647Q296 702 342 740T506 856Q426 951 393 1010Q344 1092 344 1182Q344 1303 430 1386T641
1470Q765 1470 851 1386T938 1180Q938 1102 899 1040T770 915L662 842L1079 336Q1124 405 1141 465Q1154 508 1158 555T1165 698H1274Q1271 559 1253 481Q1237 412 1215 366T1147 254L1356 0ZM598 915L682 973Q763 1028 796 1074T829 1180Q829 1261 775 1316T641
1372T508 1319T455 1184Q455 1126 485 1071Q519 1013 598 915ZM1012 248L569 782Q475 719 439 690T362 618Q283 533 283 406Q283 263 378 175T629 86Q724 86 805 117Q858 136 899 162T1012 248Z" />
<glyph unicode="&apos;" glyph-name="quotesingle" horiz-adv-x="518" d="M324 1139H195V1458H324V1139Z" />
<glyph unicode="(" glyph-name="parenleft" horiz-adv-x="581" d="M444 -121L373 -193Q291 -111 270 -82Q232 -29 216 26T199 162V1296Q199 1413 238 1487Q245 1501 252 1513T271 1540T287 1562T309 1585T328 1605T351 1629T373 1651L444 1579Q443 1578 424 1560T402
1537T384 1517T363 1493T349 1472T334 1446Q303 1383 303 1284V174Q303 73 334 12Q340 0 348 -13T363 -35T383 -59T401 -79T424 -101T444 -121Z" />
<glyph unicode=")" glyph-name="parenright" horiz-adv-x="581" d="M209 1651Q289 1570 311 1540Q351 1486 367 1432T383 1296V162Q383 97 375 56T344 -29Q336 -45 325 -61T307 -88T283 -117T261 -141T234 -168T209 -193L133 -117Q137 -113 157 -94T184 -67T205
-43T228 -13T244 16Q272 80 272 174V1284Q272 1381 244 1442Q237 1457 228 1471T205 1501T184 1524T157 1551T133 1575L209 1651Z" />
<glyph unicode="*" glyph-name="asterisk" horiz-adv-x="956" d="M809 975L764 897L518 1047L524 758H432L438 1047L193 897L147 975L399 1114L147 1253L193 1331L438 1182L432 1470H524L518 1182L764 1331L809 1253L557 1114L809 975Z" />
<glyph unicode="+" glyph-name="plus" horiz-adv-x="1052" d="M944 492H575V121H479V492H109V588H479V956H575V588H944V492Z" />
<glyph unicode="," glyph-name="comma" horiz-adv-x="528" d="M195 -233H94L207 182H358L195 -233Z" />
<glyph unicode="-" glyph-name="hyphenminus" horiz-adv-x="872" d="M705 492H168V588H705V492Z" />
<glyph unicode="." glyph-name="period" horiz-adv-x="528" d="M358 90Q358 50 330 22T264 -6T198 22T170 88T198 154T264 182T330 155T358 90Z" />
<glyph unicode="/" glyph-name="slash" horiz-adv-x="692" d="M692 1610L109 -152H0L584 1610H692Z" />
<glyph unicode="0" glyph-name="zero" horiz-adv-x="1052" d="M909 377Q909 206 802 97T526 -12Q358 -12 251 97T143 377V1081Q143 1252 250 1361T526 1470Q694 1470 801 1361T909 1081V377ZM248 387Q248 247 323 164T526 80T729 163T805 387V1071Q805 1211 729
1294T526 1378T324 1295T248 1071V387Z" />
<glyph unicode="1" glyph-name="one" horiz-adv-x="1052" d="M641 0H537V1339L272 1106V1231L537 1458H641V0Z" />
<glyph unicode="2" glyph-name="two" horiz-adv-x="1052" d="M920 0H147V92L733 860Q815 967 815 1087Q815 1221 740 1299T535 1378Q405 1378 330 1303Q297 1270 279 1225Q256 1173 254 1087H150Q155 1190 180 1251Q225 1356 317 1413T535 1470Q710 1470 815 1365T920
1085Q920 1006 897 942T819 807L272 92H920V0Z" />
<glyph unicode="3" glyph-name="three" horiz-adv-x="1052" d="M680 754Q732 733 757 719T809 680Q915 583 915 393Q915 206 803 96T498 -14Q224 -14 125 193Q96 252 86 354H190Q198 283 221 233Q258 159 331 119T500 78Q641 78 726 165T811 397Q811 546 731 623T494
700H469V793H494Q634 793 708 866T782 1081Q782 1219 706 1299T498 1380Q252 1380 209 1114H104Q118 1216 147 1270Q197 1367 288 1420T500 1473Q673 1473 780 1366T887 1083Q887 926 795 829Q751 787 680 754Z" />
<glyph unicode="4" glyph-name="four" horiz-adv-x="1052" d="M965 240H770V0H666V240H88V332L625 1458H735L199 332H666V795H770V332H965V240Z" />
<glyph unicode="5" glyph-name="five" horiz-adv-x="1052" d="M283 850Q314 883 333 897T383 924Q462 958 557 958Q745 958 834 839T924 469Q924 324 898 238T811 90Q707 -14 528 -14Q188 -14 152 322H256Q269 243 291 201Q358 78 524 78Q655 78 731 152Q779 199
799 272T819 475Q819 680 753 773T543 866Q342 866 283 713H190V1458H891V1366H283V850Z" />
<glyph unicode="6" glyph-name="six" horiz-adv-x="1052" d="M371 784Q451 819 539 819Q709 819 813 707T918 412Q918 222 811 105T530 -12Q355 -12 250 99T145 395Q145 535 227 702L602 1458H707L371 784ZM813 397Q813 548 736 637T530 727T326 639T250 403Q250
256 326 168T530 80Q656 80 734 168T813 397Z" />
<glyph unicode="7" glyph-name="seven" horiz-adv-x="1052" d="M940 1366L424 0H317L834 1366H281V1137H176V1458H940V1366Z" />
<glyph unicode="8" glyph-name="eight" horiz-adv-x="1052" d="M713 758Q803 704 846 653Q942 545 942 393Q942 220 823 104T526 -12T230 104T111 393Q111 544 207 653Q259 711 342 758Q261 807 227 846Q141 944 141 1087Q141 1253 250 1361T526 1470Q694 1470
802 1362T911 1087Q911 945 825 846Q790 805 713 758ZM807 1083Q807 1215 729 1296T526 1378Q403 1378 325 1298T246 1090Q246 962 324 882T526 801Q648 801 727 881T807 1083ZM838 387Q838 525 749 617T526 709Q394 709 305 618T215 393Q215 260 304 170T526 80Q656
80 747 169T838 387Z" />
<glyph unicode="9" glyph-name="nine" horiz-adv-x="1052" d="M682 674Q602 639 512 639Q342 639 239 751T135 1047Q135 1237 242 1353T522 1470Q696 1470 801 1359T907 1061Q907 917 825 756L451 0H346L682 674ZM803 1049Q803 1201 727 1289T520 1378Q393 1378
317 1291T240 1057Q240 909 316 820T520 731T725 818T803 1049Z" />
<glyph unicode=":" glyph-name="colon" horiz-adv-x="528" d="M358 827Q358 787 330 759T264 731T198 759T170 825Q170 864 198 892T264 920T330 893T358 827ZM358 90Q358 50 330 22T264 -6T198 22T170 88T198 154T264 182T330 155T358 90Z" />
<glyph unicode=";" glyph-name="semicolon" horiz-adv-x="528" d="M358 827Q358 787 330 759T264 731T198 759T170 825Q170 864 198 892T264 920T330 893T358 827ZM195 -233H94L207 182H358L195 -233Z" />
<glyph unicode="&lt;" glyph-name="less" horiz-adv-x="1052" d="M84 487V598L969 954V844L211 543L969 244V133L84 487Z" />
<glyph unicode="=" glyph-name="equal" horiz-adv-x="1052" d="M944 647H109V743H944V647ZM944 334H109V430H944V334Z" />
<glyph unicode="&gt;" glyph-name="greater" horiz-adv-x="1052" d="M969 487L84 133V244L842 543L84 844V954L969 598V487Z" />
<glyph unicode="?" glyph-name="question" horiz-adv-x="999" d="M164 1110Q173 1275 272 1372T530 1470Q685 1470 791 1367T897 1112Q897 1050 877 996T807 866L633 610Q596 559 596 487V391H492V483Q492 538 504 577T551 668L723 922Q762 979 777 1020T793 1110Q793
1225 718 1301T528 1378T344 1306T268 1110H164ZM625 78Q625 43 601 19T543 -6T485 18T461 76T485 134T543 158T601 134T625 78Z" />
<glyph unicode="@" glyph-name="at" horiz-adv-x="1427" d="M1270 0H1165V121Q1132 78 1110 59T1053 23Q983 -14 885 -14Q698 -14 596 119Q548 182 528 267T508 494Q508 753 588 864Q635 930 711 965T881 1001Q971 1001 1044 967Q1081 948 1105 927T1165 862V1044Q1165
1204 1084 1289T848 1374H578Q432 1374 346 1288Q299 1241 281 1188T262 1044V322Q262 216 286 166T389 57L317 -14Q261 28 237 52T193 113Q158 176 158 322V1038Q158 1230 267 1344T559 1458H866Q1049 1458 1159 1343T1270 1038V0ZM1165 492Q1165 711 1100 810T889
909Q743 909 678 811T612 494Q612 274 677 176T889 78Q1033 78 1099 176T1165 492Z" />
<glyph unicode="A" glyph-name="A" horiz-adv-x="1232" d="M1202 0H1083L956 354H276L150 0H31L567 1458H666L1202 0ZM922 453L616 1311L311 453H922Z" />
<glyph unicode="B" glyph-name="B" horiz-adv-x="1374" d="M956 750Q1009 728 1036 713T1092 672Q1206 566 1206 393Q1206 208 1093 104T778 0H225V1458H762Q951 1458 1067 1354T1184 1081Q1184 922 1073 817Q1029 778 956 750ZM336 795H750Q903 795 988 869T1073
1077Q1073 1210 988 1285T750 1360H336V795ZM336 98H766Q918 98 1007 178T1096 397Q1096 534 1007 615T766 696H336V98Z" />
<glyph unicode="C" glyph-name="C" horiz-adv-x="1220" d="M1079 170Q974 75 885 32T672 -12Q458 -12 303 137Q266 173 241 214T202 299T180 413T170 550T168 729Q168 967 176 1038Q193 1190 270 1285Q285 1303 303 1321Q375 1393 470 1431T670 1470Q791 1470
885 1425T1079 1288L1006 1214Q921 1296 848 1334T672 1372Q539 1372 429 1290T297 1079Q279 973 279 729V668Q279 455 301 361T391 199Q504 86 672 86Q774 86 847 124T1006 244L1079 170Z" />
<glyph unicode="D" glyph-name="D" horiz-adv-x="1388" d="M225 1458H715Q946 1458 1079 1325Q1120 1284 1148 1230T1191 1129T1212 1011T1220 899T1221 782Q1221 767 1221 760Q1221 544 1209 452Q1182 239 1079 133Q949 0 715 0H225V1458ZM336 98H688Q896 98
1001 211Q1110 329 1110 643V750Q1110 933 1094 1051Q1077 1166 1001 1247Q893 1360 688 1360H336V98Z" />
<glyph unicode="E" glyph-name="E" horiz-adv-x="1224" d="M1110 0H225V1458H1110V1360H336V784H995V686H336V98H1110V0Z" />
<glyph unicode="F" glyph-name="F" horiz-adv-x="1179" d="M1110 1360H336V760H995V662H336V0H225V1458H1110V1360Z" />
<glyph unicode="G" glyph-name="G" horiz-adv-x="1327" d="M1169 745V508Q1169 389 1142 306T1051 156Q895 -12 668 -12Q564 -12 470 26T303 137Q257 184 225 243T186 354Q168 501 168 729V805Q168 1032 195 1135T303 1321Q452 1470 672 1470Q785 1470 874 1432Q933
1407 979 1374T1102 1268L1028 1194Q937 1283 887 1313Q795 1372 674 1372Q505 1372 391 1260Q310 1177 297 1079Q279 946 279 729V668Q279 455 301 361T391 199Q501 86 666 86Q756 86 836 123T971 227Q1059 337 1059 516V647H668V745H1169Z" />
<glyph unicode="H" glyph-name="H" horiz-adv-x="1431" d="M1206 0H1096V686H336V0H225V1458H336V784H1096V1458H1206V0Z" />
<glyph unicode="I" glyph-name="I" horiz-adv-x="561" d="M336 0H225V1458H336V0Z" />
<glyph unicode="J" glyph-name="J" horiz-adv-x="1019" d="M815 1458V430Q815 229 696 109T379 -12Q281 -12 197 23Q159 38 132 55T61 113L137 188Q195 130 248 108T379 86Q536 86 620 181T705 453V1458H815Z" />
<glyph unicode="K" glyph-name="K" horiz-adv-x="1320" d="M1284 0H1153L684 817L336 395V0H225V1458H336V547L1075 1458H1208L758 901L1284 0Z" />
<glyph unicode="L" glyph-name="L" horiz-adv-x="1171" d="M1110 0H225V1458H336V98H1110V0Z" />
<glyph unicode="M" glyph-name="M" horiz-adv-x="1675" d="M1450 0H1339V1202L897 205H786L336 1202V0H225V1458H336L844 334L1339 1458H1450V0Z" />
<glyph unicode="N" glyph-name="N" horiz-adv-x="1513" d="M1288 0H1178L336 1268V0H225V1458H336L1178 195V1458H1288V0Z" />
<glyph unicode="O" glyph-name="O" horiz-adv-x="1335" d="M1167 729Q1167 452 1143 338T1032 137Q960 65 866 27T668 -12Q564 -12 470 26T303 137Q265 175 240 218T201 305T179 419T170 554T168 729Q168 956 175 1024Q192 1191 276 1292Q289 1307 303 1321Q375
1393 469 1431T668 1470Q771 1470 865 1432T1032 1321Q1057 1296 1076 1269T1110 1210T1134 1151T1151 1084T1160 1019T1165 947T1167 877T1168 802T1167 729ZM1057 709V764Q1057 997 1035 1093T944 1260Q830 1372 668 1372Q505 1372 391 1260Q319 1187 299 1079T279
729V666Q279 455 301 361T391 199Q504 86 668 86Q831 86 944 199Q972 227 992 257T1024 331T1044 405T1053 498T1056 594T1057 709Z" />
<glyph unicode="P" glyph-name="P" horiz-adv-x="1292" d="M225 1458H760Q960 1458 1080 1343T1200 1038T1080 733T760 618H336V0H225V1458ZM336 717H748Q911 717 1000 801T1090 1038Q1090 1192 1001 1276T748 1360H336V717Z" />
<glyph unicode="Q" glyph-name="Q" horiz-adv-x="1333" d="M1235 0L1161 -74L989 98Q908 40 844 18Q757 -12 668 -12Q564 -12 470 26T303 137Q257 184 225 243T186 354Q177 428 168 729Q168 742 167 767T166 805Q166 1031 194 1135T303 1321Q375 1393 469 1431T668
1470Q771 1470 865 1432T1032 1321Q1078 1276 1109 1217T1149 1104Q1158 1024 1167 729Q1167 717 1168 693T1169 655Q1169 394 1128 285Q1109 230 1063 172L1235 0ZM987 248Q1016 295 1028 334Q1052 426 1055 586L1057 729Q1060 986 1038 1087T944 1260Q830 1372
668 1372Q505 1372 391 1260Q310 1177 297 1079Q279 951 279 729V666Q279 455 301 361T391 199Q504 86 668 86Q732 86 801 109Q855 126 915 172L711 377L784 451L987 248Z" />
<glyph unicode="R" glyph-name="R" horiz-adv-x="1345" d="M1214 0H1085L737 672H336V0H225V1458H780Q971 1458 1084 1352T1198 1067Q1198 908 1110 805Q1063 749 1005 721T862 674L1214 0ZM336 770H766Q918 770 1002 847T1087 1065T1003 1282T766 1360H336V770Z" />
<glyph unicode="S" glyph-name="S" horiz-adv-x="1202" d="M936 1241Q883 1286 851 1307T774 1346Q694 1376 588 1376Q427 1376 336 1297T244 1075Q244 948 319 885Q408 813 537 795L694 770Q794 755 851 734T954 674Q1081 568 1081 389Q1081 201 946 95T573 -12Q426
-12 311 35Q253 61 211 90T104 180L182 258Q245 198 283 171T373 123Q463 86 586 86Q768 86 869 165T971 389Q971 521 891 592Q856 624 813 640T680 670L510 696Q326 725 231 820T135 1071Q135 1257 258 1363T598 1470Q724 1470 813 1436Q863 1418 902 1393T1008
1313L936 1241Z" />
<glyph unicode="T" glyph-name="T" horiz-adv-x="1103" d="M1042 1360H606V0H496V1360H61V1458H1042V1360Z" />
<glyph unicode="U" glyph-name="U" horiz-adv-x="1409" d="M1204 473Q1204 259 1064 124T705 -12Q485 -12 345 123T205 473V1458H315V487Q315 306 422 196T705 86Q880 86 987 196T1094 487V1458H1204V473Z" />
<glyph unicode="V" glyph-name="V" horiz-adv-x="1093" d="M1073 1458L594 0H500L20 1458H137L547 195L956 1458H1073Z" />
<glyph unicode="W" glyph-name="W" horiz-adv-x="1724" d="M1683 1458L1319 0H1206L862 1270L518 0H406L41 1458H158L465 190L805 1458H920L1260 190L1567 1458H1683Z" />
<glyph unicode="X" glyph-name="X" horiz-adv-x="1089" d="M1053 0H924L543 649L162 0H37L483 748L66 1458H195L543 846L893 1458H1020L602 748L1053 0Z" />
<glyph unicode="Y" glyph-name="Y" horiz-adv-x="1011" d="M991 1458L561 604V0H451V604L20 1458H139L510 721L872 1458H991Z" />
<glyph unicode="Z" glyph-name="Z" horiz-adv-x="1144" d="M1016 0H129V117L897 1360H160V1458H1016V1360L242 98H1016V0Z" />
<glyph unicode="[" glyph-name="bracketleft" horiz-adv-x="593" d="M502 -152H199V1610H502V1518H303V-59H502V-152Z" />
<glyph unicode="\" glyph-name="backslash" horiz-adv-x="692" d="M692 -152H584L0 1610H109L692 -152Z" />
<glyph unicode="]" glyph-name="bracketright" horiz-adv-x="593" d="M395 -152H92V-66H297V1524H92V1610H395V-152Z" />
<glyph unicode="^" glyph-name="asciicircum" horiz-adv-x="1052" d="M897 864H793L526 1360L260 864H156L479 1470H573L897 864Z" />
<glyph unicode="_" glyph-name="underscore" horiz-adv-x="1052" d="M1053 -328H0V-250H1053V-328Z" />
<glyph unicode="`" glyph-name="grave" horiz-adv-x="1024" d="M608 1208H489L272 1509H410L608 1208Z" />
<glyph unicode="a" glyph-name="a" horiz-adv-x="1073" d="M883 0H778V98Q712 37 662 16Q592 -12 473 -12Q115 -12 115 272Q115 405 206 480T459 555H778V666Q778 792 710 849T492 907Q389 907 324 874Q295 858 275 840T227 782L152 848Q189 894 214 916T274 956Q360
999 496 999Q883 999 883 676V0ZM778 471H471Q219 471 219 272Q219 171 283 126T487 80Q642 80 710 142T778 344V471Z" />
<glyph unicode="b" glyph-name="b" horiz-adv-x="1105" d="M303 860Q340 905 364 926T422 965Q495 999 588 999Q779 999 872 874T965 492Q965 -12 590 -12Q491 -12 422 23Q390 38 366 60T303 127V0H199V1458H303V860ZM860 492Q860 708 794 807T582 907T370 808T303
494Q303 278 369 179T582 80Q726 80 793 179T860 492Z" />
<glyph unicode="c" glyph-name="c" horiz-adv-x="1009" d="M901 139Q823 56 755 22T582 -12Q376 -12 259 122T141 494Q141 730 258 864T582 999Q687 999 754 965T901 848L829 782Q770 847 715 877T580 907Q404 907 313 776Q277 725 262 660T246 492Q246 392 261
327T313 211Q405 80 578 80Q659 80 713 109T829 205L901 139Z" />
<glyph unicode="d" glyph-name="d" horiz-adv-x="1105" d="M907 0H803V127Q767 83 742 62T684 23Q612 -12 516 -12Q327 -12 234 113T141 494Q141 999 516 999Q615 999 684 965Q717 947 742 926T803 860V1458H907V0ZM803 492Q803 708 737 807T524 907Q380 907 313
808T246 494Q246 278 312 179T524 80T736 179T803 492Z" />
<glyph unicode="e" glyph-name="e" horiz-adv-x="1071" d="M932 471H246Q249 389 256 346T281 262Q354 82 569 82Q648 82 709 106Q742 120 768 139T840 201L918 139Q864 87 830 63T752 20Q673 -12 565 -12Q356 -12 249 117T141 500Q141 733 246 866T537 999Q721
999 826 871T932 518V471ZM827 555Q822 654 809 696Q780 795 708 851T537 907Q451 907 383 863T281 741Q251 675 246 555H827Z" />
<glyph unicode="f" glyph-name="f" horiz-adv-x="622" d="M557 909H334V0H229V909H94V987H229V1200Q229 1320 292 1389T467 1458H557V1366H485Q334 1366 334 1202V987H557V909Z" />
<glyph unicode="g" glyph-name="g" horiz-adv-x="1105" d="M907 987V-55Q907 -252 797 -367T496 -483Q404 -483 340 -459Q269 -431 178 -352L248 -283Q319 -347 377 -371Q427 -391 500 -391Q644 -391 723 -302T803 -49V127Q767 83 742 62T684 23Q612 -12 516 -12Q327
-12 234 113T141 494Q141 999 516 999Q615 999 684 965Q717 947 742 926T803 860V987H907ZM803 492Q803 708 737 807T524 907Q380 907 313 808T246 494Q246 278 312 179T524 80T736 179T803 492Z" />
<glyph unicode="h" glyph-name="h" horiz-adv-x="1144" d="M958 0H854V612Q854 755 784 831T582 907T377 830T303 612V0H199V1458H303V870Q340 910 365 928T426 965Q498 999 596 999Q763 999 860 900T958 631V0Z" />
<glyph unicode="i" glyph-name="i" horiz-adv-x="501" d="M328 1397Q328 1364 306 1341T252 1317Q220 1317 197 1339T174 1393Q174 1425 196 1447T250 1470T304 1448T328 1397ZM303 0H199V987H303V0Z" />
<glyph unicode="j" glyph-name="j" horiz-adv-x="501" d="M328 1397Q328 1364 306 1341T252 1317Q220 1317 197 1339T174 1393Q174 1425 196 1447T250 1470T304 1448T328 1397ZM303 987V-215Q303 -337 241 -404T66 -471H-25V-379H47Q129 -379 164 -341T199 -213V987H303Z" />
<glyph unicode="k" glyph-name="k" horiz-adv-x="1079" d="M997 0H868L528 543L303 283V0H199V1458H303V430L793 987H926L600 618L997 0Z" />
<glyph unicode="l" glyph-name="l" horiz-adv-x="501" d="M303 0H199V1458H303V0Z" />
<glyph unicode="m" glyph-name="m" horiz-adv-x="1798" d="M1614 0H1509V612Q1509 755 1440 831T1239 907Q1110 907 1034 833T958 631V0H854V612Q854 755 784 831T582 907T377 830T303 612V0H199V987H303V870Q342 911 366 929T428 965Q507 999 596 999Q750 999
842 913Q879 879 913 819Q959 886 1001 918Q1104 999 1249 999Q1417 999 1515 900T1614 631V0Z" />
<glyph unicode="n" glyph-name="n" horiz-adv-x="1144" d="M958 0H854V612Q854 755 784 831T582 907T377 830T303 612V0H199V987H303V870Q340 910 365 928T426 965Q498 999 596 999Q763 999 860 900T958 631V0Z" />
<glyph unicode="o" glyph-name="o" horiz-adv-x="1077" d="M936 500Q936 353 907 258T813 96Q703 -12 539 -12Q374 -12 264 96Q200 160 171 255T141 494T170 732T264 891Q372 999 539 999Q729 999 832 869T936 500ZM831 489Q831 624 812 698T743 823Q664 907 539
907Q413 907 334 823Q286 774 266 700T246 494Q246 362 265 288T334 164Q415 80 539 80Q662 80 743 164Q791 213 811 287T831 489Z" />
<glyph unicode="p" glyph-name="p" horiz-adv-x="1105" d="M303 860Q364 937 424 968T588 999Q779 999 872 874T965 492Q965 -12 590 -12Q483 -12 422 20T303 127V-471H199V987H303V860ZM860 492Q860 708 794 807T582 907T370 808T303 494Q303 278 369 179T582
80Q726 80 793 179T860 492Z" />
<glyph unicode="q" glyph-name="q" horiz-adv-x="1105" d="M907 -471H803V127Q767 83 742 62T684 23Q612 -12 516 -12Q327 -12 234 113T141 494Q141 999 516 999Q615 999 684 965Q717 947 742 926T803 860V987H907V-471ZM803 492Q803 708 737 807T524 907Q380
907 313 808T246 494Q246 278 312 179T524 80T736 179T803 492Z" />
<glyph unicode="r" glyph-name="r" horiz-adv-x="837" d="M829 905L754 829Q706 874 668 890T573 907Q452 907 378 825T303 608V0H199V987H303V856Q336 902 365 924Q458 999 596 999Q668 999 727 975Q770 959 829 905Z" />
<glyph unicode="s" glyph-name="s" horiz-adv-x="1011" d="M776 825Q719 864 659 885Q583 909 500 909Q379 909 314 859T248 717Q248 641 296 602T449 553L608 539Q759 525 828 464T897 285Q897 145 789 67T489 -12Q362 -12 256 29Q212 47 182 66T102 129L174
201Q213 165 237 149T295 117Q382 80 502 80Q645 80 720 131T795 281Q795 431 606 446L442 461Q145 485 145 717Q145 846 241 922T500 999Q605 999 707 967Q778 942 846 895L776 825Z" />
<glyph unicode="t" glyph-name="t" horiz-adv-x="665" d="M551 0H461Q350 0 287 69T223 258V909H88V987H223V1303H328V987H551V909H328V256Q328 92 479 92H551V0Z" />
<glyph unicode="u" glyph-name="u" horiz-adv-x="1144" d="M946 0H842V117Q804 77 779 59T717 23Q648 -12 549 -12Q382 -12 284 87T186 356V987H291V375Q291 232 361 156T563 80T768 157T842 375V987H946V0Z" />
<glyph unicode="v" glyph-name="v" horiz-adv-x="880" d="M852 987L492 0H389L29 987H143L440 123L737 987H852Z" />
<glyph unicode="w" glyph-name="w" horiz-adv-x="1458" d="M1430 987L1114 0H1008L729 823L451 0H344L29 987H143L395 123L678 987H780L1063 123L1315 987H1430Z" />
<glyph unicode="x" glyph-name="x" horiz-adv-x="942" d="M860 0H733L473 416L209 0H82L416 504L96 987H223L473 590L719 987H846L526 504L860 0Z" />
<glyph unicode="y" glyph-name="y" horiz-adv-x="880" d="M852 987L393 -268Q366 -345 326 -383Q257 -446 139 -446H90V-354H129Q206 -354 243 -327T309 -219L389 0L29 987H143L440 123L737 987H852Z" />
<glyph unicode="z" glyph-name="z" horiz-adv-x="925" d="M815 0H111V98L705 895H143V987H815V889L219 92H815V0Z" />
<glyph unicode="{" glyph-name="braceleft" horiz-adv-x="647" d="M545 -152H516Q439 -152 394 -140T317 -96Q287 -67 276 -25T264 98V522Q264 598 231 641T139 684H102V774H139Q197 774 230 817T264 936V1360Q264 1441 275 1483T317 1554Q348 1585 393 1597T516
1610H545V1518H518Q422 1518 396 1490T369 1358V934Q369 856 342 812T244 729Q315 691 342 647T369 524V100Q369 -3 395 -31T518 -59H545V-152Z" />
<glyph unicode="|" glyph-name="bar" horiz-adv-x="649" d="M377 -152H272V1610H377V-152Z" />
<glyph unicode="}" glyph-name="braceright" horiz-adv-x="647" d="M545 684H508Q450 684 417 641T383 522V98Q383 -46 330 -99T131 -152H102V-59H129Q226 -59 252 -31T279 100V524Q279 603 305 647T403 729Q332 767 306 811T279 934V1358Q279 1461 253 1489T129
1518H102V1610H131Q277 1610 330 1557T383 1360V936Q383 861 416 818T508 774H545V684Z" />
<glyph unicode="~" glyph-name="asciitilde" horiz-adv-x="1052" d="M944 567Q887 513 860 492T801 457Q765 440 713 440Q667 440 629 449T524 492Q480 514 462 522T407 541T338 551Q294 551 262 534T172 459L109 522Q163 575 191 596T252 633Q287 649 340 649Q391
649 565 582Q628 556 656 548T715 539Q759 539 791 556T881 631L944 567Z" />
</font>
</defs>
</svg>
