<?xml version="1.0" standalone="no"?> <!DOCTYPE svg PUBLIC "-//W3C//DTD SVG 1.0//EN" "http://www.w3.org/TR/2001/REC-SVG-20010904/DTD/svg10.dtd" > <svg xmlns="http://www.w3.org/2000/svg" width="100%" height="100%">
<defs >
<font id="plumbmediumc" horiz-adv-x="915" ><font-face
    font-family="PlumbMediumC"
    units-per-em="2048"
    panose-1="0 0 6 0 0 0 0 0 0 0"
    ascent="1458"
    descent="-420"
    alphabetic="0" />
<missing-glyph horiz-adv-x="2048" />
<glyph unicode=" " glyph-name="space" horiz-adv-x="491" />
<glyph unicode="!" glyph-name="exclam" horiz-adv-x="679" d="M502 1458L455 434H295L250 1458H502ZM508 127Q508 72 469 33T375 -6Q321 -6 282 32T242 125Q242 180 281 219T375 258T468 220T508 127Z" />
<glyph unicode="&quot;" glyph-name="quotedbl" horiz-adv-x="909" d="M750 1067H543V1458H750V1067ZM367 1067H160V1458H367V1067Z" />
<glyph unicode="#" glyph-name="numbersign" horiz-adv-x="1378" d="M1276 872H1087L1047 618H1208V426H1016L948 0H731L799 426H518L451 0H233L301 426H139V618H334L373 872H207V1065H401L465 1466H684L621 1065H899L963 1466H1180L1116 1065H1276V872ZM868 872H590L549
618H829L868 872Z" />
<glyph unicode="$" glyph-name="dollar" horiz-adv-x="1245" d="M1139 418Q1139 296 1081 203T913 53Q869 29 826 18T694 -6V-233H528V-12Q372 -3 272 37T61 180L209 328Q254 285 281 266T348 229Q396 208 435 200T547 186V641L494 647Q313 669 212 772T111 1040Q111
1212 213 1323Q276 1391 348 1421T528 1466V1651H694V1468Q831 1456 908 1424T1087 1305L946 1165Q885 1216 834 1239Q774 1265 678 1276V834L748 823Q920 798 1018 717Q1139 611 1139 418ZM547 848V1274Q326 1244 326 1053Q326 965 379 916T547 848ZM920 412Q920
469 902 509T849 572T774 607T678 627V188Q734 197 774 211T849 250T902 315T920 412Z" />
<glyph unicode="%" glyph-name="percent" horiz-adv-x="1722" d="M1604 266Q1604 142 1525 65T1317 -12Q1188 -12 1109 64T1030 266V473Q1030 598 1109 675T1317 752Q1445 752 1524 675T1604 473V266ZM1288 1458L602 0H434L1122 1458H1288ZM694 985Q694 860 615
784T406 707Q278 707 199 783T119 985V1192Q119 1316 198 1393T406 1470Q535 1470 614 1394T694 1192V985ZM1448 272V467Q1448 539 1414 576T1317 614Q1186 614 1186 467V272Q1186 125 1317 125Q1380 125 1414 162T1448 272ZM539 991V1186Q539 1258 505 1295T406
1333Q274 1333 274 1186V991Q274 844 408 844Q471 844 505 881T539 991Z" />
<glyph unicode="&amp;" glyph-name="ampersand" horiz-adv-x="1495" d="M1401 0H1133L1014 143Q916 60 825 24T606 -12Q391 -12 265 102T139 412Q139 473 154 527T193 620T258 699T335 768T428 834Q377 893 350 931T300 1028T276 1151Q276 1290 375 1380T629 1470Q781
1470 880 1379T979 1149Q979 1103 964 1061T926 988T865 922T796 866T717 813L1024 444Q1060 500 1073 545Q1097 614 1102 739H1303Q1298 632 1287 573T1249 446Q1232 401 1214 370T1157 289L1401 0ZM778 1145Q778 1208 737 1248T633 1288T530 1249T489 1149Q489
1137 491 1125T495 1103T504 1080T514 1060T527 1038T540 1018T556 998T571 980T587 961T602 944Q604 946 637 967T680 996T714 1024T749 1060T768 1098T778 1145ZM889 291L543 702Q502 673 482 658T431 614T385 560T358 500T346 424Q346 317 421 248T614 178Q693
178 757 206T889 291Z" />
<glyph unicode="&apos;" glyph-name="quotesingle" horiz-adv-x="526" d="M367 1067H160V1458H367V1067Z" />
<glyph unicode="(" glyph-name="parenleft" horiz-adv-x="651" d="M528 -51L389 -193Q303 -109 262 -57Q213 8 195 71T176 240V1219Q176 1366 223 1456Q231 1471 244 1490T268 1522T300 1559T329 1590T362 1624T389 1651L528 1509Q486 1481 432 1401Q385 1330
385 1206V252Q385 182 396 140T442 45Q459 20 485 -10T528 -51Z" />
<glyph unicode=")" glyph-name="parenright" horiz-adv-x="651" d="M473 240Q473 84 426 2Q414 -20 401 -39T365 -83T335 -117T296 -158T262 -193L119 -49Q127 -39 171 7T231 86Q262 147 262 252V1206Q262 1312 231 1372Q207 1422 119 1507L262 1651Q356 1557
387 1516Q437 1452 455 1389T473 1219V240Z" />
<glyph unicode="*" glyph-name="asterisk" horiz-adv-x="991" d="M868 954L793 821L565 963L573 694H418L428 963L201 821L125 954L360 1079L125 1206L201 1339L428 1198L418 1464H573L565 1198L793 1339L868 1206L633 1079L868 954Z" />
<glyph unicode="+" glyph-name="plus" horiz-adv-x="1091" d="M987 461H645V117H449V461H104V655H449V997H645V655H987V461Z" />
<glyph unicode="," glyph-name="comma" horiz-adv-x="557" d="M412 264L221 -242H45L170 264H412Z" />
<glyph unicode="-" glyph-name="hyphen" horiz-adv-x="872" d="M735 471H137V666H735V471Z" />
<glyph unicode="." glyph-name="period" horiz-adv-x="581" d="M440 143Q440 82 396 38T291 -6T186 37T141 141Q141 202 185 246T291 291Q350 291 395 247T440 143Z" />
<glyph unicode="/" glyph-name="slash" horiz-adv-x="778" d="M782 1610L199 -152H0L584 1610H782Z" />
<glyph unicode="0" glyph-name="zero" horiz-adv-x="1091" d="M967 406Q967 221 850 105T547 -12Q360 -12 242 104T123 406V1053Q123 1237 241 1353T547 1470Q732 1470 849 1354T967 1053V406ZM760 412V1047Q760 1154 702 1219T547 1284Q449 1284 391 1220T332
1047V412Q332 304 390 239T547 174Q644 174 702 239T760 412Z" />
<glyph unicode="1" glyph-name="one" horiz-adv-x="1091" d="M727 0H518V1231L233 983V1210L518 1458H727V0Z" />
<glyph unicode="2" glyph-name="two" horiz-adv-x="1091" d="M977 0H129V186L690 868Q768 964 768 1063Q768 1164 711 1224T555 1284Q349 1284 340 1059H131Q134 1125 140 1159T164 1231Q213 1344 316 1407T557 1470Q745 1470 861 1358T977 1063Q977 976 948 910T840
748L383 186H977V0Z" />
<glyph unicode="3" glyph-name="three" horiz-adv-x="1091" d="M979 412Q979 219 857 104T530 -12T201 104Q143 160 118 230T86 395H295Q304 286 364 230T532 174Q642 174 706 240T770 418Q770 531 707 593T526 655H492V838H526Q632 838 690 895T748 1057T689
1222T530 1284Q437 1284 381 1231T311 1075H102Q109 1139 116 1171T139 1239Q188 1349 292 1409T532 1470Q720 1470 838 1357T956 1063Q956 950 913 878T774 754Q882 700 930 619T979 412Z" />
<glyph unicode="4" glyph-name="four" horiz-adv-x="1091" d="M1018 219H864V0H662V219H72V414L586 1458H811L299 414H662V754H864V414H1018V219Z" />
<glyph unicode="5" glyph-name="five" horiz-adv-x="1091" d="M979 483Q979 342 951 254T856 100Q743 -12 551 -12Q350 -12 240 98Q147 191 129 377H338Q356 269 405 222T549 174Q646 174 705 231Q740 270 756 329T772 485Q772 646 721 719T557 793Q401 793 352
664H162V1458H948V1272H352V885Q441 973 592 973Q758 973 854 877Q920 810 949 719T979 483Z" />
<glyph unicode="6" glyph-name="six" horiz-adv-x="1091" d="M975 430Q975 232 857 110T545 -12T234 106T115 418Q115 499 138 578T223 782L555 1458H778L465 829Q522 854 592 854Q759 854 867 735T975 430ZM768 422Q768 539 707 609T545 680T384 612T324 428Q324
312 384 243T545 174Q645 174 706 242T768 422Z" />
<glyph unicode="7" glyph-name="seven" horiz-adv-x="1091" d="M997 1272L510 0H285L774 1272H330V1042H129V1458H997V1272Z" />
<glyph unicode="8" glyph-name="eight" horiz-adv-x="1091" d="M995 410Q995 224 870 106T547 -12Q349 -12 223 106T96 410Q96 525 146 605T297 754Q121 875 121 1067Q121 1242 241 1356T547 1470Q731 1470 851 1357T971 1069Q971 873 795 754Q896 686 945 606T995
410ZM762 1057Q762 1157 702 1220T547 1284Q452 1284 391 1221T330 1061T391 902T547 840Q639 840 700 901T762 1057ZM786 412Q786 517 718 588T547 659Q444 659 375 589T305 416Q305 314 375 244T547 174Q646 174 716 244T786 412Z" />
<glyph unicode="9" glyph-name="nine" horiz-adv-x="1091" d="M977 1038Q977 959 953 879T868 676L537 0H313L629 629Q570 604 498 604Q330 604 223 723T115 1028Q115 1226 234 1348T547 1470Q739 1470 858 1351T977 1038ZM768 1026Q768 1144 708 1214T545 1284Q444
1284 384 1215T324 1032Q324 917 384 848T545 778Q645 778 706 847T768 1026Z" />
<glyph unicode=":" glyph-name="colon" horiz-adv-x="557" d="M428 842Q428 779 384 736T279 692T175 735T131 840T174 945T279 989Q339 989 383 946T428 842ZM428 145Q428 82 384 38T279 -6T175 37T131 141Q131 203 174 247T279 291Q338 291 383 247T428 145Z" />
<glyph unicode=";" glyph-name="semicolon" horiz-adv-x="557" d="M428 842Q428 779 384 736T279 692T175 735T131 840T174 945T279 989Q339 989 383 946T428 842ZM412 264L221 -242H45L170 264H412Z" />
<glyph unicode="&lt;" glyph-name="less" horiz-adv-x="1091" d="M1016 94L74 469V674L1016 1049V840L305 571L1016 305V94Z" />
<glyph unicode="=" glyph-name="equal" horiz-adv-x="1091" d="M987 670H104V864H987V670ZM987 272H104V467H987V272Z" />
<glyph unicode="&gt;" glyph-name="greater" horiz-adv-x="1091" d="M1016 469L74 94V305L786 571L74 840V1049L1016 674V469Z" />
<glyph unicode="?" glyph-name="question" horiz-adv-x="1044" d="M963 1081Q963 1017 940 960T864 827L707 606Q670 556 670 496V434H461V506Q461 565 476 610T530 709L690 926Q754 1013 754 1083Q754 1169 697 1226T553 1284Q462 1284 411 1230T354 1077H145Q152
1172 176 1235Q223 1346 322 1408T553 1470Q729 1470 846 1360T963 1081ZM696 127Q696 72 657 33T563 -6T470 32T432 125Q432 181 470 219T563 258Q617 258 656 220T696 127Z" />
<glyph unicode="@" glyph-name="at" horiz-adv-x="1507" d="M1374 -4L1180 0V102Q1120 37 1065 13T922 -12Q752 -12 651 100Q597 162 577 245T557 492Q557 633 577 716T647 856Q746 973 920 973Q1000 973 1058 946T1176 858V983Q1176 1128 1101 1204T883 1280H623Q484
1280 410 1206Q369 1165 352 1113T334 983V344Q334 257 353 214T436 119L293 -25Q238 21 213 50T168 119Q131 197 131 336V985Q131 1223 250 1343T604 1464H903Q1137 1464 1255 1344T1374 985V-4ZM1176 477Q1176 645 1126 721T967 797T809 721T760 479T809 238T967
162Q1075 162 1125 237T1176 477Z" />
<glyph unicode="A" glyph-name="A" horiz-adv-x="1280" d="M1262 0H1030L928 293H352L250 0H16L551 1458H729L1262 0ZM868 481L645 1128L416 481H868Z" />
<glyph unicode="B" glyph-name="B" horiz-adv-x="1357" d="M1221 410Q1221 221 1103 111T780 0H190V1458H758Q958 1458 1078 1351T1198 1065Q1198 844 1001 748Q1111 696 1166 614T1221 410ZM977 953T977 1051T914 1204T739 1260H412V842H739Q850 842 913 897ZM997
422Q997 523 933 583T758 643H412V199H758Q868 199 932 259T997 422Z" />
<glyph unicode="C" glyph-name="C" horiz-adv-x="1175" d="M1069 160Q1011 107 971 78T881 29Q784 -12 666 -12Q431 -12 279 143Q248 174 225 211T187 280T162 362T147 442T140 535T137 626T137 729Q136 736 136 759T137 788Q137 1002 164 1114T279 1315Q434 1470
664 1470Q783 1470 881 1430Q965 1394 1069 1298L922 1149Q854 1216 798 1244T664 1272Q532 1272 446 1184Q416 1152 398 1108T372 1001T362 888T360 750V684Q360 495 377 412T446 274Q530 186 664 186Q742 186 798 214T922 309L1069 160Z" />
<glyph unicode="D" glyph-name="D" horiz-adv-x="1363" d="M1227 741Q1227 509 1208 389Q1197 322 1163 253T1081 137Q944 0 702 0H190V1458H702Q898 1458 1034 1361T1206 1079Q1227 977 1227 866V741ZM1004 698V786Q1004 952 987 1030T926 1161Q842 1260 676
1260H412V199H676Q843 199 926 297Q969 349 986 436T1004 698Z" />
<glyph unicode="E" glyph-name="E" horiz-adv-x="1234" d="M1124 0H190V1458H1124V1260H412V834H1018V637H412V199H1124V0Z" />
<glyph unicode="F" glyph-name="F" horiz-adv-x="1198" d="M1124 1260H412V815H1018V616H412V0H190V1458H1124V1260Z" />
<glyph unicode="G" glyph-name="G" horiz-adv-x="1312" d="M1188 567Q1188 421 1158 326T1059 156Q900 -12 662 -12Q431 -12 279 143Q175 250 156 387Q137 498 137 729V788Q137 1001 165 1114T279 1315Q431 1470 668 1470Q800 1470 901 1425Q953 1402 996 1370T1104
1278L952 1128Q903 1177 870 1203T795 1247Q737 1272 666 1272Q557 1272 479 1214T379 1051Q360 962 360 729V682Q360 494 377 411T444 274Q530 186 662 186Q810 186 897 291Q967 379 967 520V600H662V788H1188V567Z" />
<glyph unicode="H" glyph-name="H" horiz-adv-x="1413" d="M1225 0H1001V637H412V0H190V1458H412V834H1001V1458H1225V0Z" />
<glyph unicode="I" glyph-name="I" horiz-adv-x="602" d="M412 0H190V1458H412V0Z" />
<glyph unicode="J" glyph-name="J" horiz-adv-x="1036" d="M866 461Q866 248 732 118T377 -12Q264 -12 178 25Q135 42 105 63T27 129L174 274Q225 224 269 205T379 186Q507 186 576 262T645 477V1458H866V461Z" />
<glyph unicode="K" glyph-name="K" horiz-adv-x="1347" d="M1327 0H1067L657 719L412 424V0H190V1458H412V725L1006 1458H1278L805 887L1327 0Z" />
<glyph unicode="L" glyph-name="L" horiz-adv-x="1175" d="M1114 0H190V1458H412V199H1114V0Z" />
<glyph unicode="M" glyph-name="M" horiz-adv-x="1665" d="M1477 0H1253V975L918 264H754L412 975V0H190V1458H410L836 551L1255 1458H1477V0Z" />
<glyph unicode="N" glyph-name="N" horiz-adv-x="1476" d="M1286 0H1085L412 1028V0H190V1458H391L1065 432V1458H1286V0Z" />
<glyph unicode="O" glyph-name="O" horiz-adv-x="1325" d="M1188 729Q1188 655 1188 624T1185 531T1178 439T1163 359T1138 279T1100 211T1047 143Q894 -12 662 -12Q431 -12 279 143Q253 170 232 199T196 264T171 329T154 403T144 475T139 555T137 634T137 719V797Q137
995 165 1112T279 1315Q434 1470 662 1470T1047 1315Q1126 1234 1157 1117T1188 831V729ZM965 743Q965 936 951 1029T879 1182Q791 1272 662 1272Q532 1272 444 1182Q423 1160 408 1134T384 1070T370 1004T363 921T361 838T360 739Q360 726 360 679T360 616T361
559T364 500T370 449T380 396T395 353T416 310T444 276Q536 186 662 186Q794 186 879 276Q938 338 951 432T965 743Z" />
<glyph unicode="P" glyph-name="P" horiz-adv-x="1288" d="M1210 1213T1210 1016T1081 696T743 573H412V0H190V1458H743Q951 1458 1080 1336ZM989 903T989 1016T919 1194T729 1260H412V772H729Q849 772 919 837Z" />
<glyph unicode="Q" glyph-name="Q" horiz-adv-x="1323" d="M1233 55L1112 -66L967 78Q890 28 822 8T662 -12Q431 -12 279 143Q230 192 197 255T156 375Q137 536 137 700V821Q137 1026 167 1129T279 1315Q434 1470 662 1470Q894 1470 1047 1315Q1095 1265 1128
1202T1169 1081Q1188 972 1188 729V668Q1188 419 1153 315Q1140 271 1092 199L1233 55ZM965 686V770Q965 965 948 1046T879 1182Q794 1272 662 1272Q529 1272 444 1182Q414 1149 396 1111T370 1021T362 937T360 836Q360 819 360 811V682Q360 495 377 414T444 276Q529
186 662 186Q740 186 811 233L657 387L780 510L922 367Q929 382 934 398T944 428T952 460T957 491T961 524T963 554T964 588T965 619T965 653T965 686Z" />
<glyph unicode="R" glyph-name="R" horiz-adv-x="1341" d="M1253 0H995L688 614H412V0H190V1458H756Q957 1458 1082 1340T1208 1032T1075 727Q1042 699 1010 682T918 645L1253 0ZM987 1030Q987 1136 920 1198T739 1260H412V803H739Q853 803 920 864T987 1030Z" />
<glyph unicode="S" glyph-name="S" horiz-adv-x="1208" d="M1102 418Q1102 217 957 103T557 -12Q403 -12 288 32T61 180L209 328Q293 250 376 218T578 186Q725 186 804 244T883 412Q883 515 829 561T666 623L494 647Q111 703 111 1040Q111 1241 244 1355T612 1470Q747
1470 848 1432T1051 1305L909 1165Q776 1278 602 1278Q472 1278 399 1218T326 1051Q326 881 545 848L711 823Q901 795 1001 701T1102 418Z" />
<glyph unicode="T" glyph-name="T" horiz-adv-x="1146" d="M1085 1260H684V0H463V1260H61V1458H1085V1260Z" />
<glyph unicode="U" glyph-name="U" horiz-adv-x="1382" d="M1214 492Q1214 272 1067 130T690 -12Q463 -12 316 130T168 492V1458H391V502Q391 357 472 272T690 186Q828 186 910 271T993 502V1458H1214V492Z" />
<glyph unicode="V" glyph-name="V" horiz-adv-x="1155" d="M1145 1458L664 0H492L10 1458H242L578 397L911 1458H1145Z" />
<glyph unicode="W" glyph-name="W" horiz-adv-x="1783" d="M1761 1458L1378 0H1186L891 1022L596 0H403L23 1458H256L510 414L803 1458H979L1274 414L1528 1458H1761Z" />
<glyph unicode="X" glyph-name="X" horiz-adv-x="1183" d="M1163 0H907L590 559L272 0H20L469 748L49 1458H303L590 936L879 1458H1133L711 748L1163 0Z" />
<glyph unicode="Y" glyph-name="Y" horiz-adv-x="1114" d="M1102 1458L668 600V0H446V600L10 1458H252L559 817L862 1458H1102Z" />
<glyph unicode="Z" glyph-name="Z" horiz-adv-x="1130" d="M1032 0H98V190L774 1260H127V1458H1032V1278L352 199H1032V0Z" />
<glyph unicode="[" glyph-name="bracketleft" horiz-adv-x="708" d="M623 -152H176V1610H623V1423H385V35H623V-152Z" />
<glyph unicode="\" glyph-name="backslash" horiz-adv-x="778" d="M778 -152H578L0 1593H199L778 -152Z" />
<glyph unicode="]" glyph-name="bracketright" horiz-adv-x="708" d="M535 -152H88V33H330V1425H88V1610H535V-152Z" />
<glyph unicode="^" glyph-name="asciicircum" horiz-adv-x="1091" d="M993 821H776L547 1245L317 821H100L453 1473H643L993 821Z" />
<glyph unicode="_" glyph-name="underscore" horiz-adv-x="1228" d="M1229 -352H0V-209H1229V-352Z" />
<glyph unicode="`" glyph-name="grave" horiz-adv-x="1024" d="M618 1227H461L233 1559H463L618 1227Z" />
<glyph unicode="a" glyph-name="a" horiz-adv-x="1085" d="M930 0H725V94Q663 32 604 11T449 -10Q275 -10 182 71T88 303Q88 444 183 524T444 604H723V680Q723 781 668 826T489 872Q403 872 350 846Q309 826 266 772L129 901Q173 949 200 971T264 1010Q352 1051
496 1051Q930 1051 930 694V0ZM723 375V457H477Q291 457 291 309Q291 234 340 198T496 162Q617 162 670 211T723 375Z" />
<glyph unicode="b" glyph-name="b" horiz-adv-x="1132" d="M1014 516Q1014 347 987 245T899 82Q807 -12 641 -12Q549 -12 492 15T371 111V0H166V1458H375V934Q432 997 492 1024T639 1051Q804 1051 899 958Q938 920 963 867T998 748T1011 635T1014 516ZM807 334T807
520T757 785T590 864Q462 864 414 764Q375 685 375 512Q375 332 425 253T592 174Q707 174 757 254Z" />
<glyph unicode="c" glyph-name="c" horiz-adv-x="993" d="M918 135Q869 87 838 64T764 23Q687 -12 578 -12Q358 -12 236 129T113 524Q113 770 236 910T578 1051Q680 1051 764 1016Q807 996 838 974T918 903L776 766Q724 818 682 841T575 864Q450 864 386 777T322
520Q322 174 575 174Q641 174 681 196T776 274L918 135Z" />
<glyph unicode="d" glyph-name="d" horiz-adv-x="1132" d="M967 0H762V111Q702 42 643 15T492 -12Q323 -12 231 80Q117 194 117 520V551Q117 842 231 956Q326 1051 492 1051Q580 1051 639 1025T758 934V1458H967V0ZM758 518Q758 704 708 784T541 864Q413 864 365
764Q326 685 326 512Q326 332 376 253T543 174Q658 174 708 254T758 518Z" />
<glyph unicode="e" glyph-name="e" horiz-adv-x="1103" d="M991 457H319Q327 166 592 166Q667 166 722 192T836 274L967 150Q878 62 792 25T584 -12Q350 -12 232 123T113 524Q113 768 231 909T553 1051Q754 1051 872 916T991 551V457ZM786 604Q767 877 553 877Q492
877 447 855T375 794T335 708T319 604H786Z" />
<glyph unicode="f" glyph-name="f" horiz-adv-x="671" d="M612 860H408V0H199V860H80V1020H199V1180Q199 1312 276 1390T483 1468H612V1290H520Q408 1290 408 1169V1020H612V860Z" />
<glyph unicode="g" glyph-name="g" horiz-adv-x="1124" d="M958 4Q958 -195 835 -313T502 -432Q388 -432 312 -402T147 -295L281 -164Q335 -212 384 -233T502 -254Q619 -254 684 -185T750 10V143Q695 80 634 53T487 25Q323 25 231 117Q194 155 170 205T135 316T121
426T117 539V571Q117 714 144 805T231 956Q326 1051 489 1051Q575 1051 635 1023T756 930V1038H958V4ZM750 537Q750 712 700 788T537 864Q425 864 376 788T326 539Q326 365 375 289T539 213Q650 213 700 289T750 537Z" />
<glyph unicode="h" glyph-name="h" horiz-adv-x="1159" d="M1004 0H795V637Q795 745 741 804T586 864Q488 864 432 804T375 637V0H166V1458H375V934Q492 1051 647 1051Q810 1051 907 948T1004 670V0Z" />
<glyph unicode="i" glyph-name="i" horiz-adv-x="540" d="M406 1380Q406 1322 367 1282T270 1241Q215 1241 175 1281T135 1376Q135 1432 175 1471T270 1511Q326 1511 366 1473T406 1380ZM375 0H166V1038H375V0Z" />
<glyph unicode="j" glyph-name="j" horiz-adv-x="540" d="M406 1380Q406 1322 367 1282T270 1241Q215 1241 175 1281T135 1376Q135 1432 175 1471T270 1511Q326 1511 366 1473T406 1380ZM375 -137Q375 -269 299 -347T90 -426H-39V-246H53Q113 -246 139 -218T166
-125V1038H375V-137Z" />
<glyph unicode="k" glyph-name="k" horiz-adv-x="1122" d="M1077 0H819L528 479L375 305V0H166V1458H375V559L778 1038H1032L672 631L1077 0Z" />
<glyph unicode="l" glyph-name="l" horiz-adv-x="540" d="M375 0H166V1458H375V0Z" />
<glyph unicode="m" glyph-name="m" horiz-adv-x="1796" d="M1642 0H1434V633Q1434 742 1379 803T1223 864Q1125 864 1067 805T1008 645V0H801V633Q801 741 745 802T590 864Q489 864 432 803T375 633V0H166V1038H373V934Q496 1051 649 1051Q745 1051 815 1014T942
899Q1013 978 1088 1014T1266 1051Q1438 1051 1540 946T1642 664V0Z" />
<glyph unicode="n" glyph-name="n" horiz-adv-x="1163" d="M1008 0H799V633Q799 742 744 803T588 864T432 803T375 633V0H166V1038H373V934Q490 1051 647 1051Q814 1051 911 947T1008 664V0Z" />
<glyph unicode="o" glyph-name="o" horiz-adv-x="1099" d="M981 524Q981 367 954 274T860 111Q740 -12 549 -12T240 111Q174 180 146 273T117 520Q117 672 145 765T240 928Q358 1051 549 1051T860 928Q925 860 953 767T981 524ZM774 516Q774 621 760 688T709 797Q649
864 549 864Q448 864 389 795Q326 716 326 512Q326 316 393 240Q450 174 549 174Q651 174 711 244Q774 320 774 516Z" />
<glyph unicode="p" glyph-name="p" horiz-adv-x="1132" d="M1014 516Q1014 347 987 245T899 82Q807 -12 641 -12Q552 -12 493 14T375 106V-420H166V1038H371V930Q437 998 493 1024T639 1051Q779 1051 870 984T991 782Q1014 683 1014 516ZM807 334T807 520T757
785T590 864Q462 864 414 764Q375 685 375 512Q375 332 425 253T592 174Q707 174 757 254Z" />
<glyph unicode="q" glyph-name="q" horiz-adv-x="1132" d="M967 -420H758V106Q701 42 640 15T492 -12Q323 -12 231 80Q117 194 117 520V553Q117 842 231 956Q326 1051 492 1051Q582 1051 641 1024T762 930V1038H967V-420ZM758 518Q758 704 708 784T541 864Q413
864 365 764Q326 685 326 512Q326 332 376 253T543 174Q658 174 708 254T758 518Z" />
<glyph unicode="r" glyph-name="r" horiz-adv-x="897" d="M895 952L737 795Q698 834 665 849T586 864Q491 864 433 800T375 631V0H166V1038H373V926Q479 1051 653 1051Q731 1051 783 1029T895 952Z" />
<glyph unicode="s" glyph-name="s" horiz-adv-x="1021" d="M932 317Q932 161 814 75T477 -12Q330 -12 223 33Q181 49 150 70T66 137L203 274Q272 215 339 191T500 166Q610 166 669 204T729 311Q729 420 590 432L422 446Q117 472 117 729Q117 878 226 964T524 1051Q655
1051 762 1010Q827 986 893 934L762 801Q664 877 512 877Q418 877 368 842T317 741Q317 688 352 660T461 625L625 610Q777 596 854 522T932 317Z" />
<glyph unicode="t" glyph-name="t" horiz-adv-x="700" d="M600 0H475Q346 0 268 78T190 289V860H72V1020H190V1335H399V1020H600V860H399V299Q399 178 514 178H600V0Z" />
<glyph unicode="u" glyph-name="u" horiz-adv-x="1163" d="M995 0H793V104Q726 41 664 15T512 -12Q346 -12 251 91T156 375V1038H365V406Q365 296 419 235T573 174Q674 174 731 235T788 406V1038H995V0Z" />
<glyph unicode="v" glyph-name="v" horiz-adv-x="964" d="M948 1038L567 0H397L14 1038H238L481 305L727 1038H948Z" />
<glyph unicode="w" glyph-name="w" horiz-adv-x="1519" d="M1505 1038L1184 0H1004L760 725L518 0H338L14 1038H238L438 305L680 1038H840L1083 305L1282 1038H1505Z" />
<glyph unicode="x" glyph-name="x" horiz-adv-x="1030" d="M985 0H735L516 354L297 0H45L401 530L59 1038H311L516 700L721 1038H971L629 530L985 0Z" />
<glyph unicode="y" glyph-name="y" horiz-adv-x="964" d="M950 1038L492 -207Q453 -313 384 -362T203 -412H119V-223H172Q238 -223 268 -202T322 -115L379 49L14 1038H238L485 305L727 1038H950Z" />
<glyph unicode="z" glyph-name="z" horiz-adv-x="960" d="M862 0H88V166L604 852H117V1038H862V872L342 186H862V0Z" />
<glyph unicode="{" glyph-name="braceleft" horiz-adv-x="833" d="M739 -152H596Q446 -152 375 -83T303 133V475Q303 637 168 637H92V821H168Q303 821 303 983V1325Q303 1470 375 1540T596 1610H739V1423H662Q568 1423 540 1394T512 1264V934Q512 854 482 809T377
729Q451 695 481 650T512 524V195Q512 95 540 65T662 35H739V-152Z" />
<glyph unicode="|" glyph-name="bar" horiz-adv-x="692" d="M451 -152H242V1610H451V-152Z" />
<glyph unicode="}" glyph-name="braceright" horiz-adv-x="833" d="M739 637H666Q530 637 530 475V133Q530 -11 458 -81T238 -152H92V35H172Q265 35 293 65T322 195V524Q322 604 352 649T457 729Q382 763 352 808T322 934V1264Q322 1363 294 1393T172 1423H92V1610H238Q387
1610 458 1541T530 1325V983Q530 821 666 821H739V637Z" />
<glyph unicode="~" glyph-name="asciitilde" horiz-adv-x="1091" d="M1047 573Q982 511 948 485T866 436Q816 414 748 414Q660 414 541 469L500 487Q405 530 348 530Q301 530 267 512T176 440L47 571Q101 625 133 650T201 694Q268 731 344 731Q404 731 455 715T575
664Q578 663 585 660T599 652T608 647Q682 614 741 614Q789 614 823 632T913 705L1047 573Z" />
</font>
</defs>
</svg>
